HIERARCHY
ROOT Hips
{
	OFFSET 0.000000 0.000000 0.000000
	CHANNELS 6 Xposition Yposition Zposition Xrotation Yrotation Zrotation
	JOINT LeftUpLeg_virtual
	{
		OFFSET 0.000000 0.000000 0.000000
		CHANNELS 3 Xrotation Yrotation Zrotation
		JOINT LeftUpLeg
		{
			OFFSET 13.026900 -6.336304 -1.092800
			CHANNELS 3 Xrotation Yrotation Zrotation
			JOINT LeftLeg
			{
				OFFSET 0.524474 -46.096886 9.782700
				CHANNELS 3 Xrotation Yrotation Zrotation
				JOINT LeftFoot
				{
					OFFSET -0.524474 -53.427422 -12.948200
					CHANNELS 3 Xrotation Yrotation Zrotation
					JOINT LeftToeBase
					{
						OFFSET 0.192200 -14.009700 16.364100
						CHANNELS 3 Xrotation Yrotation Zrotation
						JOINT LeftToe_End
						{
							OFFSET -1.784700 -0.561700 9.474800
							CHANNELS 3 Xrotation Yrotation Zrotation
							End Site
							{
								OFFSET 0 0 0
							}
						}
					}
				}
			}
		}
	}
	JOINT RightUpLeg_virtual
	{
		OFFSET 0.000000 0.000000 0.000000
		CHANNELS 3 Xrotation Yrotation Zrotation
		JOINT RightUpLeg
		{
			OFFSET -12.883000 -6.336304 -1.092800
			CHANNELS 3 Xrotation Yrotation Zrotation
			JOINT RightLeg
			{
				OFFSET -0.524587 -46.096825 9.782800
				CHANNELS 3 Xrotation Yrotation Zrotation
				JOINT RightFoot
				{
					OFFSET 0.524587 -53.427383 -12.948300
					CHANNELS 3 Xrotation Yrotation Zrotation
					JOINT RightToeBase
					{
						OFFSET -0.192200 -14.009700 16.364100
						CHANNELS 3 Xrotation Yrotation Zrotation
						JOINT RightToe_End
						{
							OFFSET 1.784700 -0.561700 9.474800
							CHANNELS 3 Xrotation Yrotation Zrotation
							End Site
							{
								OFFSET 0 0 0
							}
						}
					}
				}
			}
		}
	}
	JOINT Spine_virtual
	{
		OFFSET 0.000000 0.000000 0.000000
		CHANNELS 3 Xrotation Yrotation Zrotation
		JOINT Spine
		{
			OFFSET 0.072000 7.257294 -0.789700
			CHANNELS 3 Xrotation Yrotation Zrotation
			JOINT Spine1
			{
				OFFSET 0.000000 12.508769 -0.658067
				CHANNELS 3 Xrotation Yrotation Zrotation
				JOINT Spine1_split
				{
					OFFSET 0.000000 12.508769 -0.658067
					CHANNELS 3 Xrotation Yrotation Zrotation
					JOINT Spine2
					{
						OFFSET 0.000000 12.508769 -0.658067
						CHANNELS 3 Xrotation Yrotation Zrotation
						JOINT Neck_virtual
						{
							OFFSET 0.000000 0.000000 0.000000
							CHANNELS 3 Xrotation Yrotation Zrotation
							JOINT Neck
							{
								OFFSET 0.000000 14.033295 7.520400
								CHANNELS 3 Xrotation Yrotation Zrotation
								JOINT Head
								{
									OFFSET 0.000000 8.198502 5.703100
									CHANNELS 3 Xrotation Yrotation Zrotation
									JOINT HeadTop_End
									{
										OFFSET 0.000000 17.760803 13.332701
										CHANNELS 3 Xrotation Yrotation Zrotation
										End Site
										{
											OFFSET 0 0 0
										}
									}
								}
							}
						}
						JOINT LeftShoulder_virtual
						{
							OFFSET 0.000000 0.000000 0.000000
							CHANNELS 3 Xrotation Yrotation Zrotation
							JOINT LeftShoulder
							{
								OFFSET 6.292450 5.785301 -0.669000
								CHANNELS 3 Xrotation Yrotation Zrotation
								JOINT LeftShoulder_split
								{
									OFFSET 6.292450 5.785301 -0.669000
									CHANNELS 3 Xrotation Yrotation Zrotation
									JOINT LeftArm
									{
										OFFSET 13.907140 -6.093903 1.965100
										CHANNELS 3 Xrotation Yrotation Zrotation
										JOINT LeftForeArm
										{
											OFFSET 34.140198 0.000000 0.000000
											CHANNELS 3 Xrotation Yrotation Zrotation
											JOINT LeftHand
											{
												OFFSET 40.960209 0.000000 0.000000
												CHANNELS 3 Xrotation Yrotation Zrotation
												End Site
												{
													OFFSET 0 0 0
												}
											}
										}
									}
								}
							}
						}
						JOINT RightShoulder_virtual
						{
							OFFSET 0.000000 0.000000 0.000000
							CHANNELS 3 Xrotation Yrotation Zrotation
							JOINT RightShoulder
							{
								OFFSET -6.292450 5.785301 -0.669000
								CHANNELS 3 Xrotation Yrotation Zrotation
								JOINT RightShoulder_split
								{
									OFFSET -6.292450 5.785301 -0.669000
									CHANNELS 3 Xrotation Yrotation Zrotation
									JOINT RightArm
									{
										OFFSET -13.907140 -6.093903 1.965100
										CHANNELS 3 Xrotation Yrotation Zrotation
										JOINT RightForeArm
										{
											OFFSET -34.140198 0.000000 0.000000
											CHANNELS 3 Xrotation Yrotation Zrotation
											JOINT RightHand
											{
												OFFSET -40.960209 0.000000 0.000000
												CHANNELS 3 Xrotation Yrotation Zrotation
												End Site
												{
													OFFSET 0 0 0
												}
											}
										}
									}
								}
							}
						}
					}
				}
			}
		}
	}
}
MOTION
Frames: 11
Frame Time: 0.03333333
1.765323 92.132805 -2.350302 0.000000 0.000000 0.000000 -5.153213 -48.783141 -0.142892 -40.361992 5.348156 21.093163 59.311211 -5.080386 3.849111 -14.171523 -8.199774 -14.914726 -3.823312 -0.019631 1.219913 0.000000 0.000000 0.000000 -5.757806 -47.270759 0.632523 -18.189420 -8.725217 -28.593989 58.434072 0.861129 -3.351702 -25.286173 -9.440867 24.117290 -0.472080 0.387224 0.512277 0.000000 0.000000 0.000000 -5.008984 -44.722323 0.835721 11.439166 8.107016 -1.358558 1.606647 1.453776 -0.770923 0.615789 -0.200307 0.452059 0.000000 0.000000 0.000000 2.660593 1.036393 -0.607329 -1.664240 11.220531 4.203163 6.821592 18.061416 -4.603278 0.000000 0.000000 0.000000 2.891239 0.856088 -0.675899 1.021120 2.071783 -4.738850 -0.194647 -0.528973 -1.375173 -51.429535 0.496703 -49.560949 -173.942420 -74.350871 -169.957578 0.000000 0.000000 0.000000 2.836393 0.964339 -0.748041 3.201936 12.172802 -6.504339 -2.266170 -1.397285 0.840324 -54.213090 27.115241 85.273225 -177.057655 71.758405 175.437247 0.000000 0.000000 0.000000 
1.861634 92.348862 -2.190039 0.000000 0.000000 0.000000 -4.859224 -48.643931 0.165045 -39.940057 5.285131 21.032157 59.362130 -5.432490 3.900702 -13.762329 -8.052755 -14.915900 -3.751610 -0.034152 1.156987 0.000000 0.000000 0.000000 -5.730812 -47.206337 0.793497 -17.894843 -9.082535 -28.560970 58.220293 0.585752 -3.261800 -25.553954 -9.843233 23.843261 -0.104503 0.381179 0.385093 0.000000 0.000000 0.000000 -4.880789 -44.621701 0.787748 11.357836 8.149135 -1.521824 1.527570 1.387022 -0.725354 0.667691 0.442424 0.763181 0.000000 0.000000 0.000000 2.468590 1.040302 -0.584086 -1.800052 11.468540 4.103124 6.487263 18.316943 -4.582090 0.000000 0.000000 0.000000 2.880250 0.835728 -0.578419 1.058077 1.510510 -4.977744 0.434151 -0.719356 -0.714573 -52.043466 1.809181 -49.835369 -178.946749 -74.742651 -175.046943 0.000000 0.000000 0.000000 2.802772 0.945005 -0.680856 3.142478 12.412729 -6.457777 -2.230569 -1.683430 0.509897 -54.257363 27.174572 84.796860 -177.407620 71.242261 175.850542 0.000000 0.000000 0.000000 
1.933865 92.684921 -2.118364 0.000000 0.000000 0.000000 -4.576611 -48.560859 0.488553 -39.324479 5.356182 21.136273 59.213253 -6.272523 3.930842 -13.509007 -8.000356 -15.013994 -3.723347 -0.070852 0.980870 0.000000 0.000000 0.000000 -5.592478 -47.261016 0.965242 -17.492306 -9.357666 -28.377206 57.580557 0.347964 -3.231256 -26.006565 -10.377178 23.183744 -0.205109 0.403292 0.211743 0.000000 0.000000 0.000000 -4.533738 -44.912442 0.924213 11.175207 8.281942 -1.780075 1.452939 1.362870 -0.739799 0.426160 0.446486 0.811386 0.000000 0.000000 0.000000 2.257970 1.134445 -0.625618 -1.829975 11.900195 4.037627 6.324705 18.819374 -4.187965 0.000000 0.000000 0.000000 2.904556 0.915016 -0.518783 0.977591 0.683517 -5.146924 1.003208 0.235544 0.464493 -53.336107 4.151356 -49.410330 177.059691 -73.547853 -179.278696 0.000000 0.000000 0.000000 2.662632 1.036291 -0.653317 3.150050 12.638906 -5.960451 -2.354966 -2.057956 0.184237 -54.524116 27.987515 84.026292 -178.228910 70.479008 176.750215 0.000000 0.000000 0.000000 
2.048897 93.079948 -2.054129 0.000000 0.000000 0.000000 -4.306249 -48.811752 0.740816 -38.491241 5.794686 21.418710 58.815421 -7.323430 3.845860 -13.598970 -7.811370 -15.067599 -3.772314 -0.137170 0.749503 0.000000 0.000000 0.000000 -5.281108 -47.765234 1.155912 -17.345026 -9.450696 -28.121120 56.642646 0.270537 -3.265323 -26.239884 -10.847710 22.178990 -0.786323 0.425687 0.106454 0.000000 0.000000 0.000000 -3.987152 -45.840142 1.306534 10.842737 8.467899 -2.059547 1.386411 1.410361 -0.819678 0.133183 0.092700 0.722137 0.000000 0.000000 0.000000 2.051216 1.313455 -0.712553 -1.779050 12.394227 4.021447 6.402552 19.779509 -3.650923 0.000000 0.000000 0.000000 2.836353 1.091247 -0.555432 0.875917 -0.047884 -5.049383 1.525912 1.698591 1.551638 -54.426550 6.505096 -48.559220 176.156466 -71.689536 179.311754 0.000000 0.000000 0.000000 2.466603 1.218103 -0.717646 3.175304 12.798169 -5.069894 -2.423174 -2.085479 -0.107491 -54.994358 29.584432 83.203186 -179.071755 69.649147 177.689325 0.000000 0.000000 0.000000 
2.092719 93.472397 -1.773722 0.000000 0.000000 0.000000 -3.976747 -49.838852 0.934386 -37.272588 6.739042 21.883731 57.989897 -8.217547 3.545208 -14.320363 -7.160991 -14.768532 -3.922523 -0.230686 0.539286 0.000000 0.000000 0.000000 -4.704683 -49.006822 1.439815 -17.982211 -9.042148 -27.947189 55.548730 0.541152 -3.366571 -25.847085 -10.960878 21.151621 -1.512095 0.428200 0.135708 0.000000 0.000000 0.000000 -3.222430 -47.410365 1.932297 10.372639 8.650415 -2.278432 1.269060 1.522375 -0.971267 -0.121178 -0.442021 0.494801 0.000000 0.000000 0.000000 1.856601 1.533018 -0.865118 -1.737648 12.885302 4.015501 6.446389 21.254760 -3.208838 0.000000 0.000000 0.000000 2.671035 1.331029 -0.688260 0.753761 -0.327616 -4.499443 1.292111 2.390882 1.715981 -54.159360 8.378192 -46.967427 177.513256 -69.268753 -179.920351 0.000000 0.000000 0.000000 2.240555 1.444681 -0.863136 3.144756 12.777164 -4.074042 -2.559585 -2.191478 -0.300714 -55.869387 32.111486 82.659953 -179.628170 69.100614 178.326977 0.000000 0.000000 0.000000 
2.110803 93.897324 -1.248037 0.000000 0.000000 0.000000 -3.539411 -51.888647 1.105566 -35.406628 8.181448 22.454102 56.749576 -8.707911 3.047605 -15.664163 -5.852245 -13.994164 -4.133319 -0.328537 0.384212 0.000000 0.000000 0.000000 -3.946022 -51.124929 1.763747 -19.726930 -8.109901 -27.861564 54.549586 1.195950 -3.515342 -24.593713 -10.538851 20.373450 -1.953434 0.402347 0.318862 0.000000 0.000000 0.000000 -2.402183 -49.674118 2.562067 9.888896 8.702512 -2.373615 1.047177 1.650919 -1.197963 -0.177263 -1.076495 0.569366 0.000000 0.000000 0.000000 1.676393 1.719976 -1.047740 -1.892318 13.332854 4.028493 6.244467 23.120160 -3.115857 0.000000 0.000000 0.000000 2.445936 1.549212 -0.868240 0.642598 0.190812 -3.318605 0.745165 2.347646 1.159706 -52.788647 8.863092 -44.833468 179.816437 -67.122004 -178.198789 0.000000 0.000000 0.000000 2.053855 1.638325 -1.054876 3.006030 12.431989 -3.244165 -2.848100 -2.754172 -0.346983 -57.232419 35.495424 82.705326 -179.655832 69.324549 178.463568 0.000000 0.000000 0.000000 
2.114356 94.359779 -0.676851 0.000000 0.000000 0.000000 -3.036633 -54.874163 1.245454 -32.999116 9.963597 23.058951 55.358427 -8.803923 2.504343 -17.369000 -4.028064 -12.819253 -4.381622 -0.416342 0.328080 0.000000 0.000000 0.000000 -3.232516 -53.961886 2.035101 -22.314194 -6.774212 -27.780527 53.781736 2.169464 -3.693027 -22.726847 -9.615292 19.885742 -1.908840 0.364604 0.557357 0.000000 0.000000 0.000000 -1.608888 -52.228848 2.996146 9.427947 8.610988 -2.266441 0.803543 1.708384 -1.419978 0.054666 -1.236046 0.953459 0.000000 0.000000 0.000000 1.571809 1.772851 -1.190628 -2.416169 13.779535 4.058658 5.656325 25.264113 -3.433973 0.000000 0.000000 0.000000 2.135006 1.635093 -1.026826 0.407933 1.320277 -1.680762 0.556296 1.890278 0.008184 -52.072297 7.278460 -42.103690 -178.429922 -66.733933 -176.855044 0.000000 0.000000 0.000000 1.868097 1.710586 -1.207941 2.780580 11.800793 -2.749684 -2.995913 -3.619967 -0.186043 -59.058228 39.497898 83.345397 -179.086836 70.428539 178.037719 0.000000 0.000000 0.000000 
2.126951 94.814964 -0.080410 0.000000 0.000000 0.000000 -2.719547 -58.252190 1.200808 -30.322430 11.796802 23.576100 54.121702 -8.613582 2.074727 -19.104401 -2.035721 -11.468744 -4.535828 -0.489989 0.355384 0.000000 0.000000 0.000000 -2.695095 -57.078241 2.145241 -25.152088 -5.266761 -27.504171 53.168918 3.271312 -3.923207 -20.798023 -8.414352 19.661593 -1.395732 0.350444 0.746620 0.000000 0.000000 0.000000 -1.045357 -54.701885 2.981987 9.078446 8.332162 -1.926718 0.586002 1.588568 -1.554319 0.583157 -1.469937 1.164060 0.000000 0.000000 0.000000 1.554871 1.593956 -1.247127 -3.381537 14.240545 4.122453 4.684754 27.410437 -4.115475 0.000000 0.000000 0.000000 1.872248 1.485458 -1.077304 0.048499 2.681020 0.244824 0.696959 1.553605 -1.416572 -52.972314 3.212430 -38.060509 -176.940695 -71.018634 -175.326175 0.000000 0.000000 0.000000 1.615596 1.565762 -1.227354 2.521811 10.932665 -2.602988 -2.983770 -4.601186 -0.104982 -61.292226 43.501943 84.515443 -178.013786 72.087763 177.131845 0.000000 0.000000 0.000000 
2.303890 95.254776 0.543610 0.000000 0.000000 0.000000 -2.700602 -61.274952 0.857822 -27.810966 13.422304 23.899732 53.325309 -8.393819 1.880670 -20.469310 -0.233343 -10.313283 -4.431347 -0.529968 0.411690 0.000000 0.000000 0.000000 -2.589826 -59.816618 1.859375 -27.498772 -3.998417 -26.993741 52.674385 4.274427 -4.247521 -19.205785 -7.296312 19.629503 -0.786059 0.379095 0.798256 0.000000 0.000000 0.000000 -0.904005 -56.884708 2.445700 8.865083 7.895501 -1.414447 0.517969 1.279298 -1.558965 0.987722 -1.681312 1.386315 0.000000 0.000000 0.000000 1.603978 1.196212 -1.182535 -4.610767 14.681888 4.208895 3.501476 29.281219 -4.970269 0.000000 0.000000 0.000000 1.775472 1.069124 -0.997847 -0.295011 3.635052 2.367168 0.801988 1.968670 -1.942813 -55.082201 -3.413430 -33.045391 -171.854431 -83.413815 -169.887896 0.000000 0.000000 0.000000 1.359926 1.188019 -1.109595 2.261462 9.945798 -2.695479 -2.872922 -5.135565 -0.048972 -63.423183 46.875803 85.683275 -176.606726 73.591368 175.903053 0.000000 0.000000 0.000000 
2.569547 95.672066 1.070751 0.000000 0.000000 0.000000 -2.953617 -63.370584 0.313154 -25.884752 14.689652 23.964205 52.890994 -8.317646 1.918685 -21.283344 1.038687 -9.546905 -4.168984 -0.540335 0.470996 0.000000 0.000000 0.000000 -2.961256 -61.695070 1.285390 -28.822852 -3.120314 -26.363702 52.294595 5.018248 -4.707562 -18.065966 -6.604322 19.799714 -0.525382 0.437853 0.685384 0.000000 0.000000 0.000000 -1.299355 -58.416545 1.564212 8.724853 7.385093 -0.819411 0.625506 0.870594 -1.432792 1.054191 -1.771584 1.084685 0.000000 0.000000 0.000000 1.657996 0.685184 -1.022122 -5.758435 15.019972 4.259858 2.444205 30.606607 -5.698826 0.000000 0.000000 0.000000 1.905713 0.500949 -0.850611 -0.499267 3.704963 4.355414 0.051761 2.159576 -1.425895 -56.718796 -10.921159 -27.981210 -2.641225 -76.091709 0.079644 0.000000 0.000000 0.000000 1.213044 0.658172 -0.885289 2.078500 8.984406 -2.941545 -2.765311 -4.967603 0.127993 -64.746396 49.200342 86.053738 -175.601636 74.064755 175.042763 0.000000 0.000000 0.000000 
2.850006 96.033104 1.599440 0.000000 0.000000 0.000000 -3.386626 -64.315718 -0.158724 -24.557450 15.541143 23.653295 52.530254 -8.410217 2.070507 -21.521538 1.673143 -9.150622 -3.959135 -0.520965 0.512732 0.000000 0.000000 0.000000 -3.530691 -62.473773 0.750488 -29.207651 -2.678782 -25.851774 52.157080 5.501691 -5.300304 -17.304226 -6.489929 20.188813 -0.781068 0.490417 0.487551 0.000000 0.000000 0.000000 -2.033517 -59.410679 0.743742 8.613132 6.914560 -0.278985 0.822496 0.511960 -1.231176 0.941482 -2.050170 0.476628 0.000000 0.000000 0.000000 1.686535 0.251295 -0.837664 -6.463520 15.175454 4.244086 1.878191 31.302979 -6.254309 0.000000 0.000000 0.000000 2.227629 0.004956 -0.653740 -0.493445 3.277796 5.829626 -0.703610 2.021863 -0.226294 -56.978767 -17.538418 -24.075295 -1.694341 -54.903639 2.106132 0.000000 0.000000 0.000000 1.236468 0.167379 -0.651299 2.048911 8.063827 -3.154353 -2.984146 -4.128058 0.216883 -64.747980 50.231977 85.149107 -175.610994 73.285649 175.133509 0.000000 0.000000 0.000000 
